<svg xmlns="http://www.w3.org/2000/svg" xmlns:xlink="http://www.w3.org/1999/xlink" width="240" zoomAndPan="magnify" viewBox="0 0 180 48" height="64" preserveAspectRatio="xMidYMid meet" version="1.0"><defs><filter x="0%" y="0%" width="100%" height="100%" id="f9cf64e288"><feColorMatrix values="0 0 0 0 1 0 0 0 0 1 0 0 0 0 1 0 0 0 1 0" color-interpolation-filters="sRGB"/></filter><clipPath id="3f53386f7d"><path d="M 1.835938 0 L 178.164062 0 L 178.164062 47.019531 L 1.835938 47.019531 Z M 1.835938 0 " clip-rule="nonzero"/></clipPath><clipPath id="63c2b95119"><path d="M 114 0 L 178.164062 0 L 178.164062 46 L 114 46 Z M 114 0 " clip-rule="nonzero"/></clipPath><mask id="c6323c0845"><g filter="url(#f9cf64e288)"><rect x="-18" width="216" fill="#000000" y="-4.8" height="57.6" fill-opacity="0.1"/></g></mask><clipPath id="1021ca216b"><path d="M 13 0 L 64.164062 0 L 64.164062 45 L 13 45 Z M 13 0 " clip-rule="nonzero"/></clipPath><clipPath id="56afe4788b"><path d="M 87.410156 -49.882812 L 62.378906 44.910156 L 0.785156 28.644531 L 25.820312 -66.148438 Z M 87.410156 -49.882812 " clip-rule="nonzero"/></clipPath><clipPath id="daa4a6454f"><path d="M 25.820312 -66.148438 C 42.039062 -61.867188 55.238281 -47.589844 62.054688 -26.945312 C 68.875 -6.300781 69.011719 19.792969 62.433594 44.703125 L 31.011719 36.402344 C 34.234375 24.203125 34.167969 11.421875 30.824219 1.308594 C 27.484375 -8.800781 21.023438 -15.796875 13.074219 -17.894531 Z M 25.820312 -66.148438 " clip-rule="nonzero"/></clipPath><clipPath id="e89c0bb291"><path d="M 0 0 L 51.164062 0 L 51.164062 44.90625 L 0 44.90625 Z M 0 0 " clip-rule="nonzero"/></clipPath><clipPath id="e122a5c733"><path d="M 74.410156 -49.882812 L 49.378906 44.910156 L -12.214844 28.644531 L 12.820312 -66.148438 Z M 74.410156 -49.882812 " clip-rule="nonzero"/></clipPath><clipPath id="d980711745"><path d="M 12.820312 -66.148438 C 29.039062 -61.867188 42.238281 -47.589844 49.054688 -26.945312 C 55.875 -6.300781 56.011719 19.792969 49.433594 44.703125 L 18.011719 36.402344 C 21.234375 24.203125 21.167969 11.421875 17.824219 1.308594 C 14.484375 -8.800781 8.023438 -15.796875 0.0742188 -17.894531 Z M 12.820312 -66.148438 " clip-rule="nonzero"/></clipPath><clipPath id="11ba7bf72e"><rect x="0" width="52" y="0" height="45"/></clipPath><clipPath id="c854c39b58"><rect x="0" width="65" y="0" height="46"/></clipPath><clipPath id="c2e8e77bc2"><path d="M 1.835938 19.835938 L 178.164062 19.835938 L 178.164062 47.019531 L 1.835938 47.019531 Z M 1.835938 19.835938 " clip-rule="nonzero"/></clipPath><clipPath id="1655e65b7c"><path d="M 382.578125 19.835938 C 382.578125 29.082031 340.074219 38.128906 265.871094 44.667969 C 191.664062 51.207031 89.054688 54.953125 -15.886719 54.953125 L -15.886719 37.035156 C 35.515625 37.035156 85.78125 35.203125 122.128906 32 C 158.472656 28.792969 179.292969 24.363281 179.292969 19.835938 Z M 382.578125 19.835938 " clip-rule="nonzero"/></clipPath><clipPath id="60b77c42a7"><path d="M 0.835938 0.835938 L 177.164062 0.835938 L 177.164062 28.019531 L 0.835938 28.019531 Z M 0.835938 0.835938 " clip-rule="nonzero"/></clipPath><clipPath id="962d55a89a"><path d="M 381.578125 0.835938 C 381.578125 10.082031 339.074219 19.128906 264.871094 25.667969 C 190.664062 32.207031 88.054688 35.953125 -16.886719 35.953125 L -16.886719 18.035156 C 34.515625 18.035156 84.78125 16.203125 121.128906 13 C 157.472656 9.792969 178.292969 5.363281 178.292969 0.835938 Z M 381.578125 0.835938 " clip-rule="nonzero"/></clipPath><linearGradient x1="1490.098331" gradientTransform="matrix(-0.137181, 0, 0, -0.137181, 381.576612, 35.952806)" y1="128" x2="2775.453988" gradientUnits="userSpaceOnUse" y2="128" id="4a04382f4e"><stop stop-opacity="1" stop-color="rgb(6.987%, 5.329895%, 49.60022%)" offset="0"/><stop stop-opacity="1" stop-color="rgb(7.020569%, 5.33905%, 49.754333%)" offset="0.015625"/><stop stop-opacity="1" stop-color="rgb(7.087708%, 5.358887%, 50.064087%)" offset="0.03125"/><stop stop-opacity="1" stop-color="rgb(7.156372%, 5.377197%, 50.372314%)" offset="0.046875"/><stop stop-opacity="1" stop-color="rgb(7.223511%, 5.395508%, 50.682068%)" offset="0.0625"/><stop stop-opacity="1" stop-color="rgb(7.290649%, 5.415344%, 50.990295%)" offset="0.078125"/><stop stop-opacity="1" stop-color="rgb(7.359314%, 5.433655%, 51.300049%)" offset="0.09375"/><stop stop-opacity="1" stop-color="rgb(7.426453%, 5.453491%, 51.609802%)" offset="0.109375"/><stop stop-opacity="1" stop-color="rgb(7.495117%, 5.471802%, 51.91803%)" offset="0.125"/><stop stop-opacity="1" stop-color="rgb(7.562256%, 5.491638%, 52.227783%)" offset="0.140625"/><stop stop-opacity="1" stop-color="rgb(7.629395%, 5.509949%, 52.536011%)" offset="0.15625"/><stop stop-opacity="1" stop-color="rgb(7.698059%, 5.529785%, 52.845764%)" offset="0.171875"/><stop stop-opacity="1" stop-color="rgb(7.765198%, 5.548096%, 53.153992%)" offset="0.1875"/><stop stop-opacity="1" stop-color="rgb(7.833862%, 5.567932%, 53.463745%)" offset="0.203125"/><stop stop-opacity="1" stop-color="rgb(7.901001%, 5.586243%, 53.771973%)" offset="0.21875"/><stop stop-opacity="1" stop-color="rgb(7.96814%, 5.606079%, 54.081726%)" offset="0.234375"/><stop stop-opacity="1" stop-color="rgb(8.036804%, 5.62439%, 54.391479%)" offset="0.25"/><stop stop-opacity="1" stop-color="rgb(8.103943%, 5.6427%, 54.699707%)" offset="0.265625"/><stop stop-opacity="1" stop-color="rgb(8.172607%, 5.662537%, 55.00946%)" offset="0.28125"/><stop stop-opacity="1" stop-color="rgb(8.239746%, 5.680847%, 55.317688%)" offset="0.296875"/><stop stop-opacity="1" stop-color="rgb(8.308411%, 5.700684%, 55.627441%)" offset="0.3125"/><stop stop-opacity="1" stop-color="rgb(8.375549%, 5.718994%, 55.935669%)" offset="0.328125"/><stop stop-opacity="1" stop-color="rgb(8.442688%, 5.738831%, 56.245422%)" offset="0.34375"/><stop stop-opacity="1" stop-color="rgb(8.511353%, 5.757141%, 56.55365%)" offset="0.359375"/><stop stop-opacity="1" stop-color="rgb(8.578491%, 5.776978%, 56.863403%)" offset="0.375"/><stop stop-opacity="1" stop-color="rgb(8.647156%, 5.795288%, 57.171631%)" offset="0.390625"/><stop stop-opacity="1" stop-color="rgb(8.714294%, 5.815125%, 57.481384%)" offset="0.40625"/><stop stop-opacity="1" stop-color="rgb(8.781433%, 5.833435%, 57.791138%)" offset="0.421875"/><stop stop-opacity="1" stop-color="rgb(8.850098%, 5.853271%, 58.099365%)" offset="0.4375"/><stop stop-opacity="1" stop-color="rgb(8.917236%, 5.871582%, 58.409119%)" offset="0.453125"/><stop stop-opacity="1" stop-color="rgb(8.985901%, 5.889893%, 58.717346%)" offset="0.46875"/><stop stop-opacity="1" stop-color="rgb(9.05304%, 5.909729%, 59.0271%)" offset="0.484375"/><stop stop-opacity="1" stop-color="rgb(9.120178%, 5.92804%, 59.335327%)" offset="0.5"/><stop stop-opacity="1" stop-color="rgb(9.188843%, 5.947876%, 59.645081%)" offset="0.515625"/><stop stop-opacity="1" stop-color="rgb(9.255981%, 5.966187%, 59.953308%)" offset="0.53125"/><stop stop-opacity="1" stop-color="rgb(9.324646%, 5.986023%, 60.263062%)" offset="0.546875"/><stop stop-opacity="1" stop-color="rgb(9.391785%, 6.004333%, 60.572815%)" offset="0.5625"/><stop stop-opacity="1" stop-color="rgb(9.458923%, 6.02417%, 60.881042%)" offset="0.578125"/><stop stop-opacity="1" stop-color="rgb(9.527588%, 6.04248%, 61.190796%)" offset="0.59375"/><stop stop-opacity="1" stop-color="rgb(9.594727%, 6.062317%, 61.499023%)" offset="0.609375"/><stop stop-opacity="1" stop-color="rgb(9.663391%, 6.080627%, 61.808777%)" offset="0.625"/><stop stop-opacity="1" stop-color="rgb(9.73053%, 6.100464%, 62.117004%)" offset="0.640625"/><stop stop-opacity="1" stop-color="rgb(9.799194%, 6.118774%, 62.426758%)" offset="0.65625"/><stop stop-opacity="1" stop-color="rgb(9.866333%, 6.137085%, 62.734985%)" offset="0.671875"/><stop stop-opacity="1" stop-color="rgb(9.933472%, 6.156921%, 63.044739%)" offset="0.6875"/><stop stop-opacity="1" stop-color="rgb(10.002136%, 6.175232%, 63.354492%)" offset="0.703125"/><stop stop-opacity="1" stop-color="rgb(10.069275%, 6.195068%, 63.66272%)" offset="0.71875"/><stop stop-opacity="1" stop-color="rgb(10.137939%, 6.213379%, 63.972473%)" offset="0.734375"/><stop stop-opacity="1" stop-color="rgb(10.205078%, 6.233215%, 64.280701%)" offset="0.75"/><stop stop-opacity="1" stop-color="rgb(10.272217%, 6.251526%, 64.590454%)" offset="0.765625"/><stop stop-opacity="1" stop-color="rgb(10.340881%, 6.271362%, 64.898682%)" offset="0.78125"/><stop stop-opacity="1" stop-color="rgb(10.40802%, 6.289673%, 65.208435%)" offset="0.796875"/><stop stop-opacity="1" stop-color="rgb(10.476685%, 6.309509%, 65.516663%)" offset="0.8125"/><stop stop-opacity="1" stop-color="rgb(10.543823%, 6.32782%, 65.826416%)" offset="0.828125"/><stop stop-opacity="1" stop-color="rgb(10.610962%, 6.347656%, 66.136169%)" offset="0.84375"/><stop stop-opacity="1" stop-color="rgb(10.679626%, 6.365967%, 66.444397%)" offset="0.859375"/><stop stop-opacity="1" stop-color="rgb(10.746765%, 6.384277%, 66.75415%)" offset="0.875"/><stop stop-opacity="1" stop-color="rgb(10.81543%, 6.404114%, 67.062378%)" offset="0.890625"/><stop stop-opacity="1" stop-color="rgb(10.882568%, 6.422424%, 67.372131%)" offset="0.90625"/><stop stop-opacity="1" stop-color="rgb(10.949707%, 6.442261%, 67.680359%)" offset="0.921875"/><stop stop-opacity="1" stop-color="rgb(11.018372%, 6.460571%, 67.990112%)" offset="0.9375"/><stop stop-opacity="1" stop-color="rgb(11.08551%, 6.480408%, 68.29834%)" offset="0.953125"/><stop stop-opacity="1" stop-color="rgb(11.154175%, 6.498718%, 68.608093%)" offset="0.96875"/><stop stop-opacity="1" stop-color="rgb(11.221313%, 6.518555%, 68.916321%)" offset="0.984375"/><stop stop-opacity="1" stop-color="rgb(11.288452%, 6.536865%, 69.226074%)" offset="1"/></linearGradient><clipPath id="ea9fbc706d"><rect x="0" width="178" y="0" height="29"/></clipPath></defs><g clip-path="url(#3f53386f7d)"><path fill="#ffffff" d="M 1.835938 0 L 178.164062 0 L 178.164062 47.019531 L 1.835938 47.019531 Z M 1.835938 0 " fill-opacity="1" fill-rule="nonzero"/><path fill="#0a21c0" d="M 1.835938 0 L 178.164062 0 L 178.164062 47.019531 L 1.835938 47.019531 Z M 1.835938 0 " fill-opacity="1" fill-rule="nonzero"/></g><g clip-path="url(#63c2b95119)"><g mask="url(#c6323c0845)"><g transform="matrix(1, 0, 0, 1, 114, 0.000000000000005041)"><g clip-path="url(#c854c39b58)"><g clip-path="url(#1021ca216b)"><g clip-path="url(#56afe4788b)"><g clip-path="url(#daa4a6454f)"><g transform="matrix(1, 0, 0, 1, 13, 0.000000000000005041)"><g clip-path="url(#11ba7bf72e)"><g clip-path="url(#e89c0bb291)"><g clip-path="url(#e122a5c733)"><g clip-path="url(#d980711745)"><path fill="#050a44" d="M 74.410156 -49.882812 L 49.441406 44.667969 L -12.148438 28.40625 L 12.820312 -66.148438 Z M 74.410156 -49.882812 " fill-opacity="1" fill-rule="nonzero"/></g></g></g></g></g></g></g></g></g></g></g></g><g clip-path="url(#c2e8e77bc2)"><g clip-path="url(#1655e65b7c)"><g transform="matrix(1, 0, 0, 1, 1, 19)"><g clip-path="url(#ea9fbc706d)"><g clip-path="url(#60b77c42a7)"><g clip-path="url(#962d55a89a)"><path fill="url(#4a04382f4e)" d="M 177.164062 28.019531 L 177.164062 0.835938 L 0.835938 0.835938 L 0.835938 28.019531 Z M 177.164062 28.019531 " fill-rule="nonzero"/></g></g></g></g></g></g></svg>