<svg xmlns="http://www.w3.org/2000/svg" width="240" viewBox="0 0 180 48" height="64" version="1.0"><defs><clipPath id="b"><path d="M1.836 0h176.328v47.02H1.836Zm0 0"/></clipPath><clipPath id="d"><path d="M114 0h64.164v46H114Zm0 0"/></clipPath><clipPath id="g"><path d="M13 0h51.164v45H13Zm0 0"/></clipPath><clipPath id="h"><path d="M87.41-49.883 62.38 44.91.785 28.645 25.82-66.148Zm0 0"/></clipPath><clipPath id="i"><path d="M25.82-66.148c16.22 4.28 29.418 18.558 36.235 39.203 6.82 20.644 6.957 46.738.379 71.648l-31.422-8.3c3.222-12.2 3.156-24.981-.188-35.094-3.34-10.11-9.8-17.106-17.75-19.204Zm0 0"/></clipPath><clipPath id="k"><path d="M0 0h51.164v44.906H0Zm0 0"/></clipPath><clipPath id="l"><path d="M74.41-49.883 49.38 44.91l-61.594-16.265L12.82-66.148Zm0 0"/></clipPath><clipPath id="m"><path d="M12.82-66.148c16.22 4.28 29.418 18.558 36.235 39.203 6.82 20.644 6.957 46.738.379 71.648l-31.422-8.3c3.222-12.2 3.156-24.981-.188-35.094-3.34-10.11-9.8-17.106-17.75-19.204Zm0 0"/></clipPath><clipPath id="j"><path d="M0 0h52v45H0z"/></clipPath><clipPath id="f"><path d="M0 0h65v46H0z"/></clipPath><clipPath id="n"><path d="M1.836 19.836h176.328V47.02H1.836Zm0 0"/></clipPath><clipPath id="o"><path d="M382.578 19.836c0 9.246-42.504 18.293-116.707 24.832-74.207 6.539-176.816 10.285-281.758 10.285V37.035c51.403 0 101.668-1.832 138.016-5.035 36.344-3.207 57.164-7.637 57.164-12.164Zm0 0"/></clipPath><clipPath id="q"><path d="M.836.836h176.328V28.02H.836Zm0 0"/></clipPath><clipPath id="r"><path d="M381.578.836c0 9.246-42.504 18.293-116.707 24.832-74.207 6.539-176.816 10.285-281.758 10.285V18.035c51.403 0 101.668-1.832 138.016-5.035 36.344-3.207 57.164-7.637 57.164-12.164Zm0 0"/></clipPath><clipPath id="p"><path d="M0 0h178v29H0z"/></clipPath><linearGradient x1="1490.098" gradientTransform="translate(381.577 35.953)scale(-.13718)" y1="128" x2="2775.454" gradientUnits="userSpaceOnUse" y2="128" id="s"><stop stop-color="#120e7e" offset="0"/><stop stop-color="#120e7f" offset=".016"/><stop stop-color="#120e80" offset=".031"/><stop stop-color="#120e80" offset=".047"/><stop stop-color="#120e81" offset=".063"/><stop stop-color="#130e82" offset=".078"/><stop stop-color="#130e83" offset=".094"/><stop stop-color="#130e84" offset=".109"/><stop stop-color="#130e84" offset=".125"/><stop stop-color="#130e85" offset=".141"/><stop stop-color="#130e86" offset=".156"/><stop stop-color="#140e87" offset=".172"/><stop stop-color="#140e88" offset=".188"/><stop stop-color="#140e88" offset=".203"/><stop stop-color="#140e89" offset=".219"/><stop stop-color="#140e8a" offset=".234"/><stop stop-color="#140e8b" offset=".25"/><stop stop-color="#150e8b" offset=".266"/><stop stop-color="#150e8c" offset=".281"/><stop stop-color="#150e8d" offset=".297"/><stop stop-color="#150f8e" offset=".313"/><stop stop-color="#150f8f" offset=".328"/><stop stop-color="#160f8f" offset=".344"/><stop stop-color="#160f90" offset=".359"/><stop stop-color="#160f91" offset=".375"/><stop stop-color="#160f92" offset=".391"/><stop stop-color="#160f93" offset=".406"/><stop stop-color="#160f93" offset=".422"/><stop stop-color="#170f94" offset=".438"/><stop stop-color="#170f95" offset=".453"/><stop stop-color="#170f96" offset=".469"/><stop stop-color="#170f97" offset=".484"/><stop stop-color="#170f97" offset=".5"/><stop stop-color="#170f98" offset=".516"/><stop stop-color="#180f99" offset=".531"/><stop stop-color="#180f9a" offset=".547"/><stop stop-color="#180f9a" offset=".563"/><stop stop-color="#180f9b" offset=".578"/><stop stop-color="#180f9c" offset=".594"/><stop stop-color="#180f9d" offset=".609"/><stop stop-color="#19109e" offset=".625"/><stop stop-color="#19109e" offset=".641"/><stop stop-color="#19109f" offset=".656"/><stop stop-color="#1910a0" offset=".672"/><stop stop-color="#1910a1" offset=".688"/><stop stop-color="#1a10a2" offset=".703"/><stop stop-color="#1a10a2" offset=".719"/><stop stop-color="#1a10a3" offset=".734"/><stop stop-color="#1a10a4" offset=".75"/><stop stop-color="#1a10a5" offset=".766"/><stop stop-color="#1a10a5" offset=".781"/><stop stop-color="#1b10a6" offset=".797"/><stop stop-color="#1b10a7" offset=".813"/><stop stop-color="#1b10a8" offset=".828"/><stop stop-color="#1b10a9" offset=".844"/><stop stop-color="#1b10a9" offset=".859"/><stop stop-color="#1b10aa" offset=".875"/><stop stop-color="#1c10ab" offset=".891"/><stop stop-color="#1c10ac" offset=".906"/><stop stop-color="#1c10ad" offset=".922"/><stop stop-color="#1c10ad" offset=".938"/><stop stop-color="#1c11ae" offset=".953"/><stop stop-color="#1c11af" offset=".969"/><stop stop-color="#1d11b0" offset=".984"/><stop stop-color="#1d11b1" offset="1"/></linearGradient><filter x="0%" y="0%" width="100%" height="100%" id="a"><feColorMatrix values="0 0 0 0 1 0 0 0 0 1 0 0 0 0 1 0 0 0 1 0" color-interpolation-filters="sRGB"/></filter><mask id="c"><g filter="url(#a)"><path fill-opacity=".1" d="M-18-4.8h240v64H-18z"/></g></mask></defs><g clip-path="url(#b)"><path fill="#fff" d="M1.836 0h176.328v47.02H1.836Zm0 0"/><path fill="#0a21c0" d="M1.836 0h176.328v47.02H1.836Zm0 0"/></g><g mask="url(#c)" clip-path="url(#d)"><g clip-path="url(#f)" transform="translate(114)"><g clip-path="url(#g)"><g clip-path="url(#h)"><g clip-path="url(#i)"><g clip-path="url(#j)" transform="translate(13)"><g clip-path="url(#k)"><g clip-path="url(#l)"><g clip-path="url(#m)"><path fill="#050a44" d="M74.41-49.883 49.441 44.668l-61.59-16.262 24.97-94.554Zm0 0"/></g></g></g></g></g></g></g></g></g><g clip-path="url(#n)"><g clip-path="url(#o)"><g clip-path="url(#p)" transform="translate(1 19)"><g clip-path="url(#q)"><g clip-path="url(#r)"><path fill="url(#s)" d="M177.164 28.02V.836H.836V28.02Zm0 0"/></g></g></g></g></g></svg>