<svg xmlns="http://www.w3.org/2000/svg" xmlns:xlink="http://www.w3.org/1999/xlink" width="300" zoomAndPan="magnify" viewBox="0 0 224.87999 60" height="80" preserveAspectRatio="xMidYMid meet" version="1.0"><defs><filter x="0%" y="0%" width="100%" height="100%" id="80919eeb7f"><feColorMatrix values="0 0 0 0 1 0 0 0 0 1 0 0 0 0 1 0 0 0 1 0" color-interpolation-filters="sRGB"/></filter><clipPath id="7c6edb1999"><path d="M 0 0.015625 L 224.761719 0.015625 L 224.761719 59.984375 L 0 59.984375 Z M 0 0.015625 " clip-rule="nonzero"/></clipPath><clipPath id="7eeb101446"><path d="M 143 0.015625 L 224.761719 0.015625 L 224.761719 58 L 143 58 Z M 143 0.015625 " clip-rule="nonzero"/></clipPath><mask id="16bb77234e"><g filter="url(#80919eeb7f)"><rect x="-22.487999" width="269.855988" fill="#000000" y="-6" height="72" fill-opacity="0.1"/></g></mask><clipPath id="2bca0929cb"><path d="M 16 0.015625 L 81.761719 0.015625 L 81.761719 57.34375 L 16 57.34375 Z M 16 0.015625 " clip-rule="nonzero"/></clipPath><clipPath id="ac4f8d8a60"><path d="M 111.535156 -63.609375 L 79.609375 57.285156 L 1.054688 36.542969 L 32.980469 -84.355469 Z M 111.535156 -63.609375 " clip-rule="nonzero"/></clipPath><clipPath id="f835488c75"><path d="M 32.980469 -84.355469 C 53.667969 -78.890625 70.5 -60.683594 79.195312 -34.355469 C 87.890625 -8.027344 88.066406 25.25 79.679688 57.019531 L 39.605469 46.4375 C 43.714844 30.875 43.625 14.574219 39.367188 1.679688 C 35.105469 -11.214844 26.863281 -20.136719 16.730469 -22.8125 Z M 32.980469 -84.355469 " clip-rule="nonzero"/></clipPath><clipPath id="73b2e7bb4f"><path d="M 0.515625 0.015625 L 65.761719 0.015625 L 65.761719 57 L 0.515625 57 Z M 0.515625 0.015625 " clip-rule="nonzero"/></clipPath><clipPath id="346ba7e5e2"><path d="M 95.535156 -63.609375 L 63.609375 57.285156 L -14.945312 36.542969 L 16.980469 -84.355469 Z M 95.535156 -63.609375 " clip-rule="nonzero"/></clipPath><clipPath id="4d89432a7f"><path d="M 16.980469 -84.355469 C 37.667969 -78.890625 54.5 -60.683594 63.195312 -34.355469 C 71.890625 -8.027344 72.066406 25.25 63.679688 57.019531 L 23.605469 46.4375 C 27.714844 30.875 27.625 14.574219 23.367188 1.679688 C 19.105469 -11.214844 10.863281 -20.136719 0.730469 -22.8125 Z M 16.980469 -84.355469 " clip-rule="nonzero"/></clipPath><clipPath id="f4f68bb85b"><rect x="0" width="66" y="0" height="58"/></clipPath><clipPath id="fadf14c68e"><rect x="0" width="82" y="0" height="58"/></clipPath><clipPath id="d445c0b6d3"><path d="M 0 4.875 L 224.761719 4.875 L 224.761719 59.984375 L 0 59.984375 Z M 0 4.875 " clip-rule="nonzero"/></clipPath><clipPath id="10f12622f4"><path d="M 485.578125 4.875 C 485.578125 22.050781 431.527344 38.851562 337.160156 50.996094 C 242.796875 63.144531 112.304688 70.101562 -21.148438 70.101562 L -21.148438 36.824219 C 44.21875 36.824219 108.140625 33.417969 154.363281 27.464844 C 200.585938 21.515625 227.0625 13.289062 227.0625 4.875 Z M 485.578125 4.875 " clip-rule="nonzero"/></clipPath><clipPath id="3eb6aef238"><path d="M 0 0.875 L 224.761719 0.875 L 224.761719 55.984375 L 0 55.984375 Z M 0 0.875 " clip-rule="nonzero"/></clipPath><clipPath id="0addfe63f3"><path d="M 485.578125 0.875 C 485.578125 18.050781 431.527344 34.851562 337.160156 46.996094 C 242.796875 59.144531 112.304688 66.101562 -21.148438 66.101562 L -21.148438 32.824219 C 44.21875 32.824219 108.140625 29.417969 154.363281 23.464844 C 200.585938 17.515625 227.0625 9.289062 227.0625 0.875 Z M 485.578125 0.875 " clip-rule="nonzero"/></clipPath><linearGradient x1="1023.628425" gradientTransform="matrix(-0.254799, 0, 0, -0.254799, 485.579876, 66.101877)" y1="128" x2="1905.734544" gradientUnits="userSpaceOnUse" y2="128" id="99ba1c3759"><stop stop-opacity="1" stop-color="rgb(7.003784%, 5.334473%, 49.676514%)" offset="0"/><stop stop-opacity="1" stop-color="rgb(7.037354%, 5.343628%, 49.830627%)" offset="0.015625"/><stop stop-opacity="1" stop-color="rgb(7.104492%, 5.363464%, 50.140381%)" offset="0.03125"/><stop stop-opacity="1" stop-color="rgb(7.173157%, 5.381775%, 50.450134%)" offset="0.046875"/><stop stop-opacity="1" stop-color="rgb(7.240295%, 5.401611%, 50.759888%)" offset="0.0625"/><stop stop-opacity="1" stop-color="rgb(7.30896%, 5.419922%, 51.069641%)" offset="0.078125"/><stop stop-opacity="1" stop-color="rgb(7.376099%, 5.439758%, 51.379395%)" offset="0.09375"/><stop stop-opacity="1" stop-color="rgb(7.444763%, 5.458069%, 51.689148%)" offset="0.109375"/><stop stop-opacity="1" stop-color="rgb(7.511902%, 5.477905%, 51.998901%)" offset="0.125"/><stop stop-opacity="1" stop-color="rgb(7.580566%, 5.496216%, 52.310181%)" offset="0.140625"/><stop stop-opacity="1" stop-color="rgb(7.647705%, 5.516052%, 52.619934%)" offset="0.15625"/><stop stop-opacity="1" stop-color="rgb(7.71637%, 5.534363%, 52.929688%)" offset="0.171875"/><stop stop-opacity="1" stop-color="rgb(7.783508%, 5.554199%, 53.239441%)" offset="0.1875"/><stop stop-opacity="1" stop-color="rgb(7.852173%, 5.57251%, 53.549194%)" offset="0.203125"/><stop stop-opacity="1" stop-color="rgb(7.919312%, 5.592346%, 53.858948%)" offset="0.21875"/><stop stop-opacity="1" stop-color="rgb(7.987976%, 5.610657%, 54.168701%)" offset="0.234375"/><stop stop-opacity="1" stop-color="rgb(8.055115%, 5.630493%, 54.478455%)" offset="0.25"/><stop stop-opacity="1" stop-color="rgb(8.123779%, 5.648804%, 54.788208%)" offset="0.265625"/><stop stop-opacity="1" stop-color="rgb(8.190918%, 5.667114%, 55.097961%)" offset="0.28125"/><stop stop-opacity="1" stop-color="rgb(8.259583%, 5.686951%, 55.407715%)" offset="0.296875"/><stop stop-opacity="1" stop-color="rgb(8.326721%, 5.705261%, 55.717468%)" offset="0.3125"/><stop stop-opacity="1" stop-color="rgb(8.395386%, 5.725098%, 56.027222%)" offset="0.328125"/><stop stop-opacity="1" stop-color="rgb(8.46405%, 5.743408%, 56.336975%)" offset="0.34375"/><stop stop-opacity="1" stop-color="rgb(8.531189%, 5.763245%, 56.646729%)" offset="0.359375"/><stop stop-opacity="1" stop-color="rgb(8.599854%, 5.781555%, 56.956482%)" offset="0.375"/><stop stop-opacity="1" stop-color="rgb(8.666992%, 5.801392%, 57.266235%)" offset="0.390625"/><stop stop-opacity="1" stop-color="rgb(8.735657%, 5.819702%, 57.575989%)" offset="0.40625"/><stop stop-opacity="1" stop-color="rgb(8.802795%, 5.839539%, 57.885742%)" offset="0.421875"/><stop stop-opacity="1" stop-color="rgb(8.87146%, 5.857849%, 58.195496%)" offset="0.4375"/><stop stop-opacity="1" stop-color="rgb(8.938599%, 5.877686%, 58.505249%)" offset="0.453125"/><stop stop-opacity="1" stop-color="rgb(9.007263%, 5.895996%, 58.815002%)" offset="0.46875"/><stop stop-opacity="1" stop-color="rgb(9.074402%, 5.915833%, 59.124756%)" offset="0.484375"/><stop stop-opacity="1" stop-color="rgb(9.143066%, 5.934143%, 59.434509%)" offset="0.5"/><stop stop-opacity="1" stop-color="rgb(9.210205%, 5.953979%, 59.744263%)" offset="0.515625"/><stop stop-opacity="1" stop-color="rgb(9.27887%, 5.97229%, 60.054016%)" offset="0.53125"/><stop stop-opacity="1" stop-color="rgb(9.346008%, 5.992126%, 60.36377%)" offset="0.546875"/><stop stop-opacity="1" stop-color="rgb(9.414673%, 6.010437%, 60.673523%)" offset="0.5625"/><stop stop-opacity="1" stop-color="rgb(9.481812%, 6.030273%, 60.983276%)" offset="0.578125"/><stop stop-opacity="1" stop-color="rgb(9.550476%, 6.048584%, 61.29303%)" offset="0.59375"/><stop stop-opacity="1" stop-color="rgb(9.617615%, 6.06842%, 61.602783%)" offset="0.609375"/><stop stop-opacity="1" stop-color="rgb(9.686279%, 6.086731%, 61.912537%)" offset="0.625"/><stop stop-opacity="1" stop-color="rgb(9.753418%, 6.106567%, 62.22229%)" offset="0.640625"/><stop stop-opacity="1" stop-color="rgb(9.822083%, 6.124878%, 62.532043%)" offset="0.65625"/><stop stop-opacity="1" stop-color="rgb(9.889221%, 6.144714%, 62.841797%)" offset="0.671875"/><stop stop-opacity="1" stop-color="rgb(9.957886%, 6.163025%, 63.15155%)" offset="0.6875"/><stop stop-opacity="1" stop-color="rgb(10.025024%, 6.182861%, 63.461304%)" offset="0.703125"/><stop stop-opacity="1" stop-color="rgb(10.093689%, 6.201172%, 63.771057%)" offset="0.71875"/><stop stop-opacity="1" stop-color="rgb(10.160828%, 6.221008%, 64.082336%)" offset="0.734375"/><stop stop-opacity="1" stop-color="rgb(10.229492%, 6.239319%, 64.39209%)" offset="0.75"/><stop stop-opacity="1" stop-color="rgb(10.296631%, 6.259155%, 64.701843%)" offset="0.765625"/><stop stop-opacity="1" stop-color="rgb(10.365295%, 6.277466%, 65.011597%)" offset="0.78125"/><stop stop-opacity="1" stop-color="rgb(10.432434%, 6.297302%, 65.32135%)" offset="0.796875"/><stop stop-opacity="1" stop-color="rgb(10.501099%, 6.315613%, 65.631104%)" offset="0.8125"/><stop stop-opacity="1" stop-color="rgb(10.568237%, 6.335449%, 65.940857%)" offset="0.828125"/><stop stop-opacity="1" stop-color="rgb(10.636902%, 6.35376%, 66.25061%)" offset="0.84375"/><stop stop-opacity="1" stop-color="rgb(10.704041%, 6.373596%, 66.560364%)" offset="0.859375"/><stop stop-opacity="1" stop-color="rgb(10.772705%, 6.391907%, 66.870117%)" offset="0.875"/><stop stop-opacity="1" stop-color="rgb(10.839844%, 6.411743%, 67.179871%)" offset="0.890625"/><stop stop-opacity="1" stop-color="rgb(10.908508%, 6.430054%, 67.489624%)" offset="0.90625"/><stop stop-opacity="1" stop-color="rgb(10.975647%, 6.44989%, 67.799377%)" offset="0.921875"/><stop stop-opacity="1" stop-color="rgb(11.044312%, 6.468201%, 68.109131%)" offset="0.9375"/><stop stop-opacity="1" stop-color="rgb(11.11145%, 6.488037%, 68.418884%)" offset="0.953125"/><stop stop-opacity="1" stop-color="rgb(11.180115%, 6.506348%, 68.728638%)" offset="0.96875"/><stop stop-opacity="1" stop-color="rgb(11.247253%, 6.526184%, 69.038391%)" offset="0.984375"/><stop stop-opacity="1" stop-color="rgb(11.315918%, 6.544495%, 69.348145%)" offset="1"/></linearGradient><clipPath id="09f510ea18"><rect x="0" width="225" y="0" height="56"/></clipPath></defs><g clip-path="url(#7c6edb1999)"><path fill="#ffffff" d="M 0 0.015625 L 224.878906 0.015625 L 224.878906 59.984375 L 0 59.984375 Z M 0 0.015625 " fill-opacity="1" fill-rule="nonzero"/><path fill="#0a21c0" d="M 0 0.015625 L 224.878906 0.015625 L 224.878906 59.984375 L 0 59.984375 Z M 0 0.015625 " fill-opacity="1" fill-rule="nonzero"/></g><g clip-path="url(#7eeb101446)"><g mask="url(#16bb77234e)"><g transform="matrix(1, 0, 0, 1, 143, -0.000000000000011803)"><g clip-path="url(#fadf14c68e)"><g clip-path="url(#2bca0929cb)"><g clip-path="url(#ac4f8d8a60)"><g clip-path="url(#f835488c75)"><g transform="matrix(1, 0, 0, 1, 16, -0.000000000000011803)"><g clip-path="url(#f4f68bb85b)"><g clip-path="url(#73b2e7bb4f)"><g clip-path="url(#346ba7e5e2)"><g clip-path="url(#4d89432a7f)"><path fill="#050a44" d="M 95.535156 -63.609375 L 63.6875 56.980469 L -14.863281 36.238281 L 16.980469 -84.355469 Z M 95.535156 -63.609375 " fill-opacity="1" fill-rule="nonzero"/></g></g></g></g></g></g></g></g></g></g></g></g><g clip-path="url(#d445c0b6d3)"><g clip-path="url(#10f12622f4)"><g transform="matrix(1, 0, 0, 1, 0, 4)"><g clip-path="url(#09f510ea18)"><g clip-path="url(#3eb6aef238)"><g clip-path="url(#0addfe63f3)"><path fill="url(#99ba1c3759)" d="M 224.761719 55.984375 L 224.761719 0.875 L 0 0.875 L 0 55.984375 Z M 224.761719 55.984375 " fill-rule="nonzero"/></g></g></g></g></g></g></svg>